# xmcd CD database file
#
# Track frame offsets:
#	150
#	26287
#	54896
#	82831
#	107508
#	130832
#	160997
#	191129
#
# Disc length: 2798 seconds
#
# Revision: 0
# Processed by: cddbd v1.5.2PL0 Copyright (c) Steve Scherf et al.
# Submitted via: CDex 1.51
#
DISCID=560aec08
DTITLE=Paul Bley - Turns
DYEAR=1964
DGENRE=Jazz
TTITLE0=Around again
TTITLE1=Calls
TTITLE2=King Horn
TTITLE3=Ida Lupino (alternate take)
TTITLE4=Ida Lupino
TTITLE5=Syndrome
TTITLE6=Turns
TTITLE7=Ictus
EXTD=YEAR: 1964
EXTT0=
EXTT1=
EXTT2=
EXTT3=
EXTT4=
EXTT5=
EXTT6=
EXTT7=
PLAYORDER=
